<svg width="877" height="877" viewBox="0 0 877 877" fill="none" xmlns="http://www.w3.org/2000/svg">
<path fill-rule="evenodd" clip-rule="evenodd" d="M414.18 0.584597C363.832 3.0296 312.193 14.5026 269.18 32.7996C204.143 60.4646 150.61 100.458 100.052 159.149C89.8048 171.044 68.7138 200.727 58.9528 216.991C36.2728 254.779 18.3928 300.313 9.72776 342.349C2.47576 377.53 -0.0502451 402.492 0.000754915 438.491C0.0887549 500.093 9.54676 550.452 31.1798 604.491C45.3638 639.924 70.9028 682.475 96.5998 713.491C129.578 753.294 169.668 788.94 208.18 812.703C267.156 849.092 322.78 867.692 394.68 875.065C416.048 877.256 460.731 877.226 482.68 875.005C565.563 866.62 637.055 838.882 700.18 790.618C730.81 767.2 770.359 727.205 792.27 697.491C826.931 650.486 849.475 603.369 863.083 549.491C872.456 512.382 876.248 480.771 876.339 438.991C876.427 397.871 873.093 368.858 863.985 331.491C851.935 282.056 833.401 239.999 804.931 197.491C772.615 149.239 729.313 105.802 680.18 72.3516C603.912 20.4256 512.643 -4.1984 414.18 0.584597ZM295.68 270.009C325.503 274.502 345.849 284.989 368.245 307.412C390.952 330.147 405.401 358.593 412.619 394.772C416.353 413.489 418.851 441.53 417.441 448.906L416.947 451.491H295.063H173.18V455.885C173.18 462.771 175.132 480.243 176.822 488.476C181.672 512.11 198.077 535.617 217.965 547.433C235.192 557.667 250.894 561.679 274.18 561.795C304.576 561.948 324.199 554.647 342.326 536.444C350.551 528.185 356.009 518.718 358.321 508.7L359.523 503.491H385.852C406.47 503.491 412.18 503.766 412.18 504.761C412.18 506.523 408.508 519.757 406.012 526.991C394.54 560.242 363.356 589.187 326.444 600.848C307.139 606.946 299.747 607.918 272.68 607.918C250.498 607.918 246.496 607.664 237.18 605.661C220.445 602.064 210.842 598.795 198.35 592.446C154.93 570.376 130.244 532.513 120.141 472.491C117.475 456.652 116.456 427.763 118.077 413.953C120.659 391.955 126.155 372.662 135.169 353.957C143.796 336.056 151.751 324.838 165.642 310.984C182.312 294.357 198.458 284.035 219.299 276.681C227.089 273.932 242.94 270.137 250.68 269.167C259.026 268.121 286.567 268.636 295.68 270.009ZM521.105 282.991C526.419 290.691 544.473 316.973 561.224 341.396C577.975 365.819 592.026 386.294 592.448 386.896C592.976 387.648 593.499 387.521 594.119 386.491C594.615 385.666 608.67 365.831 625.351 342.414C642.032 318.997 660.63 292.813 666.68 284.228L677.68 268.62L710.93 268.555C729.218 268.52 744.18 268.718 744.18 268.995C744.18 269.273 718.08 304.394 686.18 347.043C654.28 389.691 628.18 424.85 628.18 425.174C628.18 425.498 630.8 429.414 634.003 433.877C647.03 452.03 712.929 543.971 732.998 571.991C744.815 588.491 755.594 603.453 756.951 605.241L759.417 608.491H723.493H687.568L653.124 557.247C634.18 529.062 613.055 497.578 606.18 487.283C599.305 476.987 593.358 468.66 592.965 468.777C592.571 468.895 586.33 477.766 579.095 488.491C544.139 540.31 508.231 593.769 503.708 600.725L498.68 608.459L464.871 608.475C438.085 608.488 431.219 608.231 431.816 607.241C432.753 605.686 550.459 440.529 556.475 432.327L558.429 429.663L553.965 423.827C548.308 416.432 441.827 271.428 440.805 269.728C440.198 268.719 447.206 268.518 475.744 268.728L511.443 268.991L521.105 282.991ZM248.014 317.058C225.122 321.2 204.67 334.57 191.52 353.991C181.356 369.001 176.869 381.614 173.822 403.741L173.306 407.491H267.243C352.511 407.491 361.18 407.344 361.18 405.898C361.18 402.14 356.935 383.945 354.363 376.676C343.367 345.603 316.444 322.558 284.663 317.016C274.048 315.165 258.376 315.183 248.014 317.058Z" fill="#828282"/>
<path fill-rule="evenodd" clip-rule="evenodd" d="M295.68 270.009C325.503 274.502 345.849 284.989 368.245 307.412C390.952 330.147 405.401 358.593 412.619 394.772C416.353 413.489 418.851 441.53 417.441 448.906L416.947 451.491H295.063H173.18V455.885C173.18 462.771 175.132 480.243 176.822 488.476C181.672 512.11 198.077 535.617 217.965 547.433C235.192 557.667 250.894 561.679 274.18 561.795C304.576 561.948 324.199 554.647 342.326 536.444C350.551 528.185 356.009 518.718 358.321 508.7L359.523 503.491H385.852C406.47 503.491 412.18 503.766 412.18 504.761C412.18 506.523 408.508 519.757 406.012 526.991C394.54 560.242 363.356 589.187 326.444 600.848C307.139 606.946 299.747 607.918 272.68 607.918C250.498 607.918 246.496 607.664 237.18 605.661C220.445 602.064 210.842 598.795 198.35 592.446C154.93 570.376 130.244 532.513 120.141 472.491C117.475 456.652 116.456 427.763 118.077 413.953C120.659 391.955 126.155 372.662 135.169 353.957C143.796 336.056 151.751 324.838 165.642 310.984C182.312 294.357 198.458 284.035 219.299 276.681C227.089 273.932 242.94 270.137 250.68 269.167C259.026 268.121 286.567 268.636 295.68 270.009ZM191.52 353.991C204.67 334.57 225.122 321.2 248.014 317.058C258.376 315.183 274.048 315.165 284.663 317.016C316.444 322.558 343.367 345.603 354.363 376.676C356.935 383.945 361.18 402.14 361.18 405.898C361.18 407.344 352.511 407.491 267.243 407.491H173.306L173.822 403.741C176.869 381.614 181.356 369.001 191.52 353.991Z" fill="white"/>
<path d="M521.105 282.991C526.419 290.691 544.473 316.973 561.224 341.396C577.975 365.819 592.026 386.294 592.448 386.896C592.976 387.648 593.499 387.521 594.119 386.491C594.615 385.666 608.67 365.831 625.351 342.414C642.032 318.997 660.63 292.813 666.68 284.228L677.68 268.62L710.93 268.555C729.218 268.52 744.18 268.718 744.18 268.995C744.18 269.273 718.08 304.394 686.18 347.043C654.28 389.691 628.18 424.85 628.18 425.174C628.18 425.498 630.8 429.414 634.003 433.877C647.03 452.03 712.929 543.971 732.998 571.991C744.815 588.491 755.594 603.453 756.951 605.241L759.417 608.491H723.493H687.568L653.124 557.247C634.18 529.062 613.055 497.578 606.18 487.283C599.305 476.987 593.358 468.66 592.965 468.777C592.571 468.895 586.33 477.766 579.095 488.491C544.139 540.31 508.231 593.769 503.708 600.725L498.68 608.459L464.871 608.475C438.085 608.488 431.219 608.231 431.816 607.241C432.753 605.686 550.459 440.529 556.475 432.327L558.429 429.663L553.965 423.827C548.308 416.432 441.827 271.428 440.805 269.728C440.198 268.719 447.206 268.518 475.744 268.728L511.443 268.991L521.105 282.991Z" fill="white"/>
</svg>
