<svg width="597" height="682" viewBox="0 0 597 682" fill="none" xmlns="http://www.w3.org/2000/svg">
<path d="M0.46665 2.93329C0.733317 4.66662 13 142.8 27.8 310C42.6 477.2 54.7333 614 54.8666 614.133C54.8666 614.133 109.4 629.333 175.933 647.867C251.533 669.067 298.2 681.467 300.6 681.067C303.4 680.667 540.867 614.667 541.8 614.133C541.933 614 554.067 477.2 568.867 310C583.667 142.8 595.933 4.66662 596.2 2.93329L596.6 0H298.333H0.0666504L0.46665 2.93329ZM485.8 132.267C485 139.067 479.667 198.8 479.667 200.533C479.667 200.933 415.133 201.333 336.333 201.333H193L193.667 206.267C194.467 212.4 199.667 271.2 199.667 274.8C199.667 277.333 202.6 277.333 336.467 277.333H473.133L472.467 282.933C472.067 286.133 467.4 337.2 462.333 396.667C457.133 456 452.6 505.867 452.333 507.333C451.8 509.733 442.333 512.8 375 531.6L298.2 552.933L221.267 531.467L144.467 510L139.4 454.667C136.733 424.267 134.467 396.8 134.467 393.6L134.333 388H172.067H209.933L212.2 415.6C213.533 430.933 215 445.067 215.533 447.2C216.467 451.067 216.867 451.2 257 462.267L297.667 473.333L338.333 462.533C360.733 456.533 379.533 451.067 380.2 450.533C380.733 450 383.267 428.267 385.533 402.133L389.8 354.667H260.733C158.6 354.667 131.4 354.267 131 352.933C130.6 352.133 126.2 303.6 121 245.333C115.933 187.067 111.4 136.133 110.867 132.267L110.2 125.333H298.333H486.467L485.8 132.267Z" fill="#FF5722"/>
<path d="M485.8 132.267C485 139.067 479.667 198.8 479.667 200.533C479.667 200.933 415.133 201.333 336.333 201.333H193L193.667 206.267C194.467 212.4 199.667 271.2 199.667 274.8C199.667 277.333 202.6 277.333 336.467 277.333H473.133L472.467 282.933C472.067 286.133 467.4 337.2 462.333 396.667C457.133 456 452.6 505.867 452.333 507.333C451.8 509.733 442.333 512.8 375 531.6L298.2 552.933L221.267 531.467L144.467 510L139.4 454.667C136.733 424.267 134.467 396.8 134.467 393.6L134.333 388H172.067H209.933L212.2 415.6C213.533 430.933 215 445.067 215.533 447.2C216.467 451.067 216.867 451.2 257 462.267L297.667 473.333L338.333 462.533C360.733 456.533 379.533 451.067 380.2 450.533C380.733 450 383.267 428.267 385.533 402.133L389.8 354.667H260.733C158.6 354.667 131.4 354.267 131 352.933C130.6 352.133 126.2 303.6 121 245.333C115.933 187.067 111.4 136.133 110.867 132.267L110.2 125.333H298.333H486.467L485.8 132.267Z" fill="white"/>
</svg>
